<?xml version="1.0" encoding="utf-8"?>
<!-- Generator: Adobe Illustrator 15.0.0, SVG Export Plug-In . SVG Version: 6.00 Build 0)  -->
<!DOCTYPE svg PUBLIC "-//W3C//DTD SVG 1.1//EN" "http://www.w3.org/Graphics/SVG/1.1/DTD/svg11.dtd">
<svg version="1.1" id="Ebene_1" xmlns="http://www.w3.org/2000/svg" xmlns:xlink="http://www.w3.org/1999/xlink" x="0px" y="0px"
	 width="612px" height="792px" viewBox="0 0 612 792" enable-background="new 0 0 612 792" xml:space="preserve">
<g id="XMLID_15_">
	<g id="XMLID_61_">
		<path id="XMLID_62_" fill="#FFFFFF" d="M135.117,468.668c-5.109,2.839-11.354,6.245-19.87,8.516
			c-8.516,2.839-17.599,3.975-28.954,3.975c-13.057,0-24.412-2.271-34.631-6.813c-10.219-4.541-19.302-10.786-26.115-18.734
			c-7.38-7.948-12.49-16.464-16.464-26.683s-5.677-21.006-5.677-32.359c0-12.49,2.271-23.845,6.812-34.063
			c3.974-10.787,10.219-19.87,18.167-27.25c7.948-7.38,17.032-13.625,27.25-18.167c10.219-4.542,21.573-6.245,33.496-6.245
			c3.974,0,8.516,0.568,12.49,1.135c4.542,0.568,8.516,1.136,12.49,2.271c3.974,1.136,7.38,2.271,10.787,3.974
			s6.245,2.838,8.516,4.542c-0.567,1.135-1.135,2.271-1.703,2.838c-0.567,0.568-1.135,1.703-1.135,2.271
			c-0.568,1.135-1.135,1.703-1.703,2.838s-1.136,2.271-2.271,3.974c-5.109-3.406-10.787-5.677-17.599-7.38
			s-13.058-2.271-18.735-2.271c-9.651,0-18.734,1.703-27.818,5.677s-16.464,9.083-22.709,15.896
			c-6.245,6.245-11.354,13.625-15.328,22.141c-3.974,8.516-5.677,17.599-5.677,26.683s1.703,17.599,4.542,26.115
			c3.406,8.517,7.948,15.896,13.625,22.142c6.245,6.245,13.057,11.354,21.573,15.328c8.516,3.974,17.599,5.678,27.818,5.678
			c4.542,0,9.083-0.568,13.058-1.136c3.974-0.568,7.948-1.703,11.922-2.839c3.406-1.136,6.812-2.271,9.651-3.406
			c2.839-1.136,5.109-2.271,6.245-3.974L135.117,468.668z"/>
	</g>
	<g id="XMLID_46_">
		<path id="XMLID_47_" fill="#FFFFFF" d="M223.681,392.594c-1.135,1.703-2.271,3.406-3.974,4.541
			c-1.703,1.703-3.406,2.84-5.677,3.975c-2.271,1.136-4.542,1.703-6.812,2.839c-2.271,0.567-5.11,1.136-7.948,1.136
			c-5.109,0-9.651-1.136-13.625-2.839c-3.974-1.703-7.948-3.974-10.787-7.38c-2.838-3.407-5.677-6.813-7.38-10.787
			c-1.703-3.974-2.838-9.083-2.838-13.625c0-4.542,1.135-9.651,2.838-13.625c1.704-3.974,3.974-7.948,7.38-10.787
			c2.839-2.839,6.813-5.677,10.787-7.38c3.974-1.703,8.516-2.839,13.625-2.839c3.974,0,7.948,0.568,12.49,2.271
			c3.974,1.703,7.38,3.974,10.219,7.948l-5.677,4.542c-0.568-1.135-1.704-2.271-2.839-3.406s-2.271-2.271-3.974-2.838
			c-1.703-0.568-3.406-1.703-5.109-1.703c-1.703-0.568-3.406-0.568-5.109-0.568c-3.974,0-7.948,0.568-11.354,2.271
			c-3.406,1.135-6.245,3.406-8.516,5.677c-2.271,2.271-3.974,5.677-5.109,9.083c-1.136,3.407-1.703,6.813-1.703,10.787
			c0,3.974,0.567,7.38,1.703,10.787c1.135,3.406,2.838,6.245,5.109,9.083c2.271,2.839,5.109,4.542,8.516,6.245
			s7.38,2.271,11.354,2.271c1.703,0,3.406,0,5.109-0.568s3.406-0.568,5.109-1.703c1.703-0.568,3.406-1.703,4.542-2.838
			c1.703-1.136,2.838-2.839,3.974-4.542L223.681,392.594z"/>
		<path id="XMLID_49_" fill="#FFFFFF" d="M265.125,403.381h-6.813v-28.386l-24.979-37.47h8.516l19.87,31.225l19.87-31.225h8.516
			l-24.98,37.47L265.125,403.381L265.125,403.381z"/>
		<path id="XMLID_51_" fill="#FFFFFF" d="M361.637,392.594c-1.136,1.703-2.271,3.406-3.975,4.541
			c-1.703,1.703-3.406,2.84-5.677,3.975c-2.271,1.136-4.542,1.703-6.812,2.839c-2.271,0.567-5.109,1.136-7.948,1.136
			c-5.109,0-9.651-1.136-13.625-2.839c-3.975-1.703-7.948-3.974-10.787-7.38c-2.839-2.839-5.677-6.813-7.38-10.787
			c-1.703-3.974-2.839-9.083-2.839-13.625c0-4.542,1.136-9.651,2.839-13.625c1.703-3.974,3.974-7.948,7.38-10.787
			c2.839-2.839,6.812-5.677,10.787-7.38c3.974-1.703,8.516-2.839,13.625-2.839c3.974,0,7.948,0.568,12.489,2.271
			c3.975,1.703,7.381,4.542,10.787,7.948l-5.677,4.542c-0.568-1.135-1.704-2.271-2.839-3.406c-1.136-1.135-2.271-2.271-3.975-2.838
			c-1.703-0.568-3.406-1.703-5.109-1.703c-2.271-0.568-3.974-1.136-5.677-1.136c-3.975,0-7.948,0.568-11.354,2.271
			s-6.245,3.406-8.516,6.245c-2.271,2.839-3.975,5.677-5.109,9.083c-1.136,3.407-1.703,6.813-1.703,10.787
			c0,3.974,0.567,7.38,1.703,10.787c1.135,3.406,2.838,6.245,5.109,9.083c2.271,2.839,5.109,4.542,8.516,6.245
			s7.38,2.271,11.354,2.271c1.703,0,3.406,0,5.109-0.568s3.406-0.568,5.109-1.703c1.703-0.568,3.406-1.703,4.542-2.838
			c1.703-1.136,2.839-2.839,3.974-4.542L361.637,392.594z"/>
		<path id="XMLID_53_" fill="#FFFFFF" d="M388.887,397.135h30.657v6.246h-37.47v-66.423h6.812V397.135z"/>
		<path id="XMLID_55_" fill="#FFFFFF" d="M444.523,403.381h-6.812v-66.423h6.812V403.381z"/>
		<path id="XMLID_57_" fill="#FFFFFF" d="M520.029,393.162L520.029,393.162v-56.204h6.812v65.855h-8.516l-39.172-56.771l0,0v56.771
			h-6.812v-65.855h8.516L520.029,393.162z"/>
		<path id="XMLID_59_" fill="#FFFFFF" d="M602.916,349.447c-2.271-2.271-5.109-3.974-7.947-5.677
			c-2.839-1.135-6.812-2.271-10.787-2.271c-3.974,0-7.948,0.568-11.354,2.271s-6.245,3.406-8.516,6.245
			c-2.271,2.839-3.974,5.677-5.109,9.083c-1.136,3.407-1.703,6.813-1.703,10.787c0,3.974,0.567,7.38,1.703,10.787
			c1.136,3.406,2.839,6.245,5.109,9.083c2.271,2.839,5.109,4.542,8.516,6.245s7.381,2.271,11.354,2.271
			c3.406,0,6.812-0.568,9.651-1.137c3.406-0.566,5.677-1.703,8.516-3.406v-22.141h-15.896v-6.245h22.709v32.36
			c-3.974,2.271-7.948,3.975-12.489,5.109c-4.542,1.136-8.516,1.703-12.49,1.703c-5.109,0-9.651-1.135-13.625-2.838
			c-3.975-1.703-7.948-3.975-10.787-7.381c-2.838-2.839-5.677-6.812-7.38-10.787s-2.839-9.083-2.839-13.625
			c0-4.542,1.136-9.651,2.839-13.625s3.974-7.948,7.38-10.787c2.839-2.838,6.812-5.677,10.787-7.38
			c3.974-1.703,8.516-2.838,13.625-2.838s9.651,0.567,13.625,2.271c3.975,1.703,7.381,3.406,10.22,6.813L602.916,349.447z"/>
	</g>
	<g id="XMLID_22_">
		<path id="XMLID_23_" fill="#ECB802" d="M175.993,453.907h-3.974l14.193-32.928h3.406l14.193,32.928h-3.974l-3.406-8.516h-17.032
			L175.993,453.907z M181.102,441.985h14.193l-7.38-17.6L181.102,441.985z"/>
		<path id="XMLID_26_" fill="#ECB802" d="M223.113,420.979H233.9c2.271,0,3.974,0.567,6.245,1.136
			c2.271,0.567,3.974,1.703,5.677,2.838c1.703,1.136,2.839,2.839,3.974,5.11c1.135,2.271,1.703,4.541,1.703,7.38
			s-0.568,5.109-1.703,7.381c-1.135,2.271-2.271,3.974-3.974,5.109c-1.703,1.135-3.406,2.271-5.677,2.838
			c-2.271,0.568-3.974,1.136-6.245,1.136h-10.787V420.979z M226.52,451.068h6.245c2.271,0,4.542-0.567,6.813-1.135
			c2.271-0.568,3.406-1.703,4.542-2.839c1.136-1.136,2.271-2.839,2.839-4.542c0.567-1.703,1.135-3.406,1.135-5.109
			s-0.568-3.406-1.135-5.109c-0.568-1.703-1.703-2.839-2.839-4.542c-1.135-1.135-2.838-2.271-4.542-2.838
			c-1.703-0.568-3.974-1.136-6.813-1.136h-6.812v27.25H226.52z"/>
		<path id="XMLID_29_" fill="#ECB802" d="M282.724,448.798L282.724,448.798l10.787-27.818h3.406l-13.058,32.928h-3.406
			l-12.49-32.928h3.974L282.724,448.798z"/>
		<path id="XMLID_31_" fill="#ECB802" d="M319.625,451.068h17.6v2.839h-21.006v-32.928h20.438v2.839h-17.031v11.354h15.896v2.838
			h-15.896V451.068L319.625,451.068z"/>
		<path id="XMLID_33_" fill="#ECB802" d="M383.21,448.798L383.21,448.798v-27.818h3.406v32.928h-3.975l-19.87-28.386l0,0v28.386
			h-3.406v-32.928h3.975L383.21,448.798z"/>
		<path id="XMLID_35_" fill="#ECB802" d="M420.679,453.907h-3.406v-30.089h-10.786v-2.839h25.547v2.839h-10.786v30.089H420.679z"/>
		<path id="XMLID_37_" fill="#ECB802" d="M475.748,441.417c0,1.136,0,2.839-0.568,4.542c-0.567,1.703-1.135,2.839-1.703,4.542
			c-0.567,1.703-2.271,2.271-3.974,3.406s-3.406,1.136-6.245,1.136c-2.271,0-4.542-0.568-6.245-1.136
			c-1.703-1.136-2.838-1.703-3.406-3.406c-0.567-1.703-1.703-2.839-1.703-4.542c-0.567-1.703-0.567-2.838-0.567-4.542v-20.438h3.406
			v20.438c0,1.704,0,2.839,0.567,3.975c0.568,1.136,0.568,2.271,1.136,2.839c0.567,0.567,1.136,1.135,1.703,1.703
			c0.567,0.567,1.136,0.567,1.703,1.135c0.567,0,1.136,0.568,1.703,0.568s1.136,0,1.703,0s1.136,0,1.703,0
			c0.568,0,1.136,0,1.703-0.568c0.568,0,1.136-0.567,1.703-1.135c0.568-0.568,1.136-1.136,1.703-1.703
			c0.568-0.568,1.136-1.703,1.136-2.839c0.567-1.136,0.567-2.271,0.567-3.975v-20.438h3.406v20.438H475.748z"/>
		<path id="XMLID_39_" fill="#ECB802" d="M502.431,453.907h-3.406v-32.928h10.219c3.406,0,6.245,0.567,7.948,2.271
			s2.838,3.407,2.838,6.813c0,2.271-0.567,3.974-2.271,5.677s-3.406,2.271-6.245,2.839l9.651,15.896h-3.974l-9.084-15.896h-5.677
			V453.907z M502.431,435.173h6.245c1.703,0,2.838,0,3.974-0.568c1.136-0.567,1.703-0.567,2.271-1.135
			c0.568-0.568,1.136-1.136,1.136-1.703c0-0.568,0.567-1.703,0.567-2.271c0-0.567,0-1.703-0.567-2.271
			c0-0.567-0.567-1.136-1.136-1.703c-0.567-0.567-1.703-1.136-2.271-1.136c-1.136-0.567-2.271-0.567-3.974-0.567h-6.245V435.173z"/>
		<path id="XMLID_42_" fill="#ECB802" d="M545.01,451.068h17.599v2.839h-21.006v-32.928h20.438v2.839H545.01v11.354h15.896v2.838
			H545.01V451.068z"/>
		<path id="XMLID_44_" fill="#ECB802" d="M600.078,426.089c-1.703-2.271-3.406-3.406-6.245-3.406c-1.136,0-1.703,0-2.839,0.567
			c-0.567,0-1.703,0.568-2.271,1.136s-1.136,1.136-1.703,1.703c-0.567,0.568-0.567,1.703-0.567,2.839
			c0,1.703,0.567,2.839,1.135,3.406c0.568,0.567,1.703,1.703,3.406,2.271c1.136,0.568,2.839,1.136,3.975,1.703
			c1.703,0.568,2.838,1.136,3.974,1.703c1.136,0.568,2.271,1.703,3.406,2.839c0.567,1.136,1.136,2.839,1.136,4.542
			s-0.568,2.839-1.136,3.974c-0.567,1.136-1.703,2.271-2.271,2.839c-1.136,0.567-2.271,1.703-3.406,1.703
			c-1.136,0.567-2.839,0.567-3.975,0.567c-2.271,0-3.974-0.567-5.677-1.135c-1.703-0.568-3.406-2.271-4.542-3.975l2.839-2.271
			c0.567,1.136,1.703,2.271,2.839,2.839c1.135,0.567,2.838,1.135,4.541,1.135c0.568,0,1.703,0,2.271-0.567
			c0.567,0,1.703-0.567,2.271-1.136c0.567-0.567,1.136-1.135,1.703-1.703c0.567-0.567,0.567-1.703,0.567-2.838
			c0-1.136,0-2.271-0.567-2.839c-0.567-0.568-1.136-1.136-1.703-1.703c-0.567-0.568-1.703-1.136-2.839-1.136
			c-1.135-0.567-2.271-0.567-3.406-1.136c-1.135-0.567-2.271-0.567-3.406-1.135c-1.135-0.568-1.703-1.136-2.839-1.703
			c-0.567-0.568-1.703-1.703-1.703-2.271c-0.567-1.135-0.567-2.271-0.567-3.974s0.567-2.839,1.136-3.975
			c0.567-1.135,1.135-2.271,2.271-2.838c1.136-0.568,2.271-1.136,3.406-1.703c1.136-0.568,2.839-0.568,3.975-0.568
			c1.703,0,3.406,0.568,5.109,1.136s2.838,1.703,3.974,3.406L600.078,426.089z"/>
	</g>
	<path id="XMLID_17_" fill="#ECB802" d="M89.132,435.74c22.141,0,39.74-17.6,39.74-39.74c0-22.141-17.599-39.74-39.74-39.74
		s-39.74,17.599-39.74,39.74C49.392,418.141,66.991,435.74,89.132,435.74"/>
</g>
</svg>
