<?xml version="1.0" encoding="utf-8"?>
<!-- Generator: Adobe Illustrator 19.0.0, SVG Export Plug-In . SVG Version: 6.00 Build 0)  -->
<svg version="1.1" id="Ebene_1" xmlns="http://www.w3.org/2000/svg" xmlns:xlink="http://www.w3.org/1999/xlink" x="0px" y="0px"
	 viewBox="0 0 107.8 31" style="enable-background:new 0 0 107.8 31;" xml:space="preserve">
<style type="text/css">
	.st0{fill:#453E38;}
	.st1{fill:#ECB802;}
</style>
<g id="XMLID_15_">
	<g id="XMLID_61_">
		<path id="XMLID_62_" class="st0" d="M23.8,28.3c-0.9,0.5-2,1.1-3.5,1.5c-1.5,0.5-3.1,0.7-5.1,0.7c-2.3,0-4.3-0.4-6.1-1.2
			c-1.8-0.8-3.4-1.9-4.6-3.3c-1.3-1.4-2.2-2.9-2.9-4.7c-0.7-1.8-1-3.7-1-5.7c0-2.2,0.4-4.2,1.2-6C2.5,7.7,3.6,6.1,5,4.8
			c1.4-1.3,3-2.4,4.8-3.2c1.8-0.8,3.8-1.1,5.9-1.1c0.7,0,1.5,0.1,2.2,0.2c0.8,0.1,1.5,0.2,2.2,0.4c0.7,0.2,1.3,0.4,1.9,0.7
			c0.6,0.3,1.1,0.5,1.5,0.8c-0.1,0.2-0.2,0.4-0.3,0.5c-0.1,0.1-0.2,0.3-0.2,0.4c-0.1,0.2-0.2,0.3-0.3,0.5c-0.1,0.2-0.2,0.4-0.4,0.7
			c-0.9-0.6-1.9-1-3.1-1.3c-1.2-0.3-2.3-0.4-3.3-0.4c-1.7,0-3.3,0.3-4.9,1C9.4,4.7,8.1,5.6,7,6.8c-1.1,1.1-2,2.4-2.7,3.9
			c-0.7,1.5-1,3.1-1,4.7c0,1.6,0.3,3.1,0.8,4.6c0.6,1.5,1.4,2.8,2.4,3.9c1.1,1.1,2.3,2,3.8,2.7c1.5,0.7,3.1,1,4.9,1
			c0.8,0,1.6-0.1,2.3-0.2c0.7-0.1,1.4-0.3,2.1-0.5c0.6-0.2,1.2-0.4,1.7-0.6c0.5-0.2,0.9-0.4,1.1-0.7L23.8,28.3z"/>
	</g>
	<g id="XMLID_46_">
		<path id="XMLID_47_" class="st0" d="M39.4,14.9c-0.2,0.3-0.4,0.6-0.7,0.8c-0.3,0.3-0.6,0.5-1,0.7c-0.4,0.2-0.8,0.3-1.2,0.5
			c-0.4,0.1-0.9,0.2-1.4,0.2c-0.9,0-1.7-0.2-2.4-0.5c-0.7-0.3-1.4-0.7-1.9-1.3s-1-1.2-1.3-1.9C29.2,12.7,29,11.8,29,11
			s0.2-1.7,0.5-2.4c0.3-0.7,0.7-1.4,1.3-1.9c0.5-0.5,1.2-1,1.9-1.3c0.7-0.3,1.5-0.5,2.4-0.5c0.7,0,1.4,0.1,2.2,0.4
			C38,5.6,38.6,6,39.1,6.7l-1,0.8c-0.1-0.2-0.3-0.4-0.5-0.6c-0.2-0.2-0.4-0.4-0.7-0.5c-0.3-0.1-0.6-0.3-0.9-0.3
			c-0.3-0.1-0.6-0.1-0.9-0.1c-0.7,0-1.4,0.1-2,0.4C32.5,6.6,32,7,31.6,7.4s-0.7,1-0.9,1.6c-0.2,0.6-0.3,1.2-0.3,1.9
			c0,0.7,0.1,1.3,0.3,1.9c0.2,0.6,0.5,1.1,0.9,1.6c0.4,0.5,0.9,0.8,1.5,1.1c0.6,0.3,1.3,0.4,2,0.4c0.3,0,0.6,0,0.9-0.1
			c0.3-0.1,0.6-0.1,0.9-0.3c0.3-0.1,0.6-0.3,0.8-0.5c0.3-0.2,0.5-0.5,0.7-0.8L39.4,14.9z"/>
		<path id="XMLID_49_" class="st0" d="M46.7,16.8h-1.2v-5l-4.4-6.6h1.5l3.5,5.5l3.5-5.5h1.5l-4.4,6.6V16.8z"/>
		<path id="XMLID_51_" class="st0" d="M63.7,14.9c-0.2,0.3-0.4,0.6-0.7,0.8c-0.3,0.3-0.6,0.5-1,0.7c-0.4,0.2-0.8,0.3-1.2,0.5
			c-0.4,0.1-0.9,0.2-1.4,0.2c-0.9,0-1.7-0.2-2.4-0.5c-0.7-0.3-1.4-0.7-1.9-1.3c-0.5-0.5-1-1.2-1.3-1.9c-0.3-0.7-0.5-1.6-0.5-2.4
			s0.2-1.7,0.5-2.4c0.3-0.7,0.7-1.4,1.3-1.9c0.5-0.5,1.2-1,1.9-1.3c0.7-0.3,1.5-0.5,2.4-0.5c0.7,0,1.4,0.1,2.2,0.4
			c0.7,0.3,1.3,0.8,1.9,1.4l-1,0.8c-0.1-0.2-0.3-0.4-0.5-0.6c-0.2-0.2-0.4-0.4-0.7-0.5c-0.3-0.1-0.6-0.3-0.9-0.3
			C60,6,59.7,5.9,59.4,5.9c-0.7,0-1.4,0.1-2,0.4c-0.6,0.3-1.1,0.6-1.5,1.1s-0.7,1-0.9,1.6c-0.2,0.6-0.3,1.2-0.3,1.9
			c0,0.7,0.1,1.3,0.3,1.9c0.2,0.6,0.5,1.1,0.9,1.6c0.4,0.5,0.9,0.8,1.5,1.1c0.6,0.3,1.3,0.4,2,0.4c0.3,0,0.6,0,0.9-0.1
			c0.3-0.1,0.6-0.1,0.9-0.3c0.3-0.1,0.6-0.3,0.8-0.5c0.3-0.2,0.5-0.5,0.7-0.8L63.7,14.9z"/>
		<path id="XMLID_53_" class="st0" d="M68.5,15.7h5.4v1.1h-6.6V5.1h1.2V15.7z"/>
		<path id="XMLID_55_" class="st0" d="M78.3,16.8h-1.2V5.1h1.2V16.8z"/>
		<path id="XMLID_57_" class="st0" d="M91.6,15L91.6,15l0-9.9h1.2v11.6h-1.5l-6.9-10h0v10h-1.2V5.1h1.5L91.6,15z"/>
		<path id="XMLID_59_" class="st0" d="M106.2,7.3c-0.4-0.4-0.9-0.7-1.4-1c-0.5-0.2-1.2-0.4-1.9-0.4c-0.7,0-1.4,0.1-2,0.4
			c-0.6,0.3-1.1,0.6-1.5,1.1c-0.4,0.5-0.7,1-0.9,1.6c-0.2,0.6-0.3,1.2-0.3,1.9c0,0.7,0.1,1.3,0.3,1.9c0.2,0.6,0.5,1.1,0.9,1.6
			c0.4,0.5,0.9,0.8,1.5,1.1c0.6,0.3,1.3,0.4,2,0.4c0.6,0,1.2-0.1,1.7-0.2c0.6-0.1,1-0.3,1.5-0.6v-3.9h-2.8v-1.1h4v5.7
			c-0.7,0.4-1.4,0.7-2.2,0.9c-0.8,0.2-1.5,0.3-2.2,0.3c-0.9,0-1.7-0.2-2.4-0.5c-0.7-0.3-1.4-0.7-1.9-1.3c-0.5-0.5-1-1.2-1.3-1.9
			c-0.3-0.7-0.5-1.6-0.5-2.4s0.2-1.7,0.5-2.4c0.3-0.7,0.7-1.4,1.3-1.9c0.5-0.5,1.2-1,1.9-1.3c0.7-0.3,1.5-0.5,2.4-0.5
			c0.9,0,1.7,0.1,2.4,0.4c0.7,0.3,1.3,0.6,1.8,1.2L106.2,7.3z"/>
	</g>
	<g id="XMLID_22_">
		<path id="XMLID_23_" class="st1" d="M31,25.7h-0.7l2.5-5.8h0.6l2.5,5.8h-0.7l-0.6-1.5h-3L31,25.7z M31.9,23.6h2.5l-1.3-3.1
			L31.9,23.6z"/>
		<path id="XMLID_26_" class="st1" d="M39.3,19.9h1.9c0.4,0,0.7,0.1,1.1,0.2c0.4,0.1,0.7,0.3,1,0.5c0.3,0.2,0.5,0.5,0.7,0.9
			c0.2,0.4,0.3,0.8,0.3,1.3c0,0.5-0.1,0.9-0.3,1.3c-0.2,0.4-0.4,0.7-0.7,0.9c-0.3,0.2-0.6,0.4-1,0.5c-0.4,0.1-0.7,0.2-1.1,0.2h-1.9
			V19.9z M39.9,25.2H41c0.4,0,0.8-0.1,1.2-0.2s0.6-0.3,0.8-0.5c0.2-0.2,0.4-0.5,0.5-0.8s0.2-0.6,0.2-0.9c0-0.3-0.1-0.6-0.2-0.9
			c-0.1-0.3-0.3-0.5-0.5-0.8c-0.2-0.2-0.5-0.4-0.8-0.5c-0.3-0.1-0.7-0.2-1.2-0.2h-1.2V25.2z"/>
		<path id="XMLID_29_" class="st1" d="M49.8,24.8L49.8,24.8l1.9-4.9h0.6l-2.3,5.8h-0.6l-2.2-5.8h0.7L49.8,24.8z"/>
		<path id="XMLID_31_" class="st1" d="M56.3,25.2h3.1v0.5h-3.7v-5.8h3.6v0.5h-3v2h2.8v0.5h-2.8V25.2z"/>
		<path id="XMLID_33_" class="st1" d="M67.5,24.8L67.5,24.8l0-4.9h0.6v5.8h-0.7l-3.5-5h0v5h-0.6v-5.8H64L67.5,24.8z"/>
		<path id="XMLID_35_" class="st1" d="M74.1,25.7h-0.6v-5.3h-1.9v-0.5h4.5v0.5h-1.9V25.7z"/>
		<path id="XMLID_37_" class="st1" d="M83.8,23.5c0,0.2,0,0.5-0.1,0.8c-0.1,0.3-0.2,0.5-0.3,0.8s-0.4,0.4-0.7,0.6s-0.6,0.2-1.1,0.2
			c-0.4,0-0.8-0.1-1.1-0.2c-0.3-0.2-0.5-0.3-0.6-0.6s-0.3-0.5-0.3-0.8c-0.1-0.3-0.1-0.5-0.1-0.8v-3.6h0.6v3.6c0,0.3,0,0.5,0.1,0.7
			c0.1,0.2,0.1,0.4,0.2,0.5c0.1,0.1,0.2,0.2,0.3,0.3c0.1,0.1,0.2,0.1,0.3,0.2c0.1,0,0.2,0.1,0.3,0.1c0.1,0,0.2,0,0.3,0
			c0.1,0,0.2,0,0.3,0c0.1,0,0.2,0,0.3-0.1c0.1,0,0.2-0.1,0.3-0.2c0.1-0.1,0.2-0.2,0.3-0.3c0.1-0.1,0.2-0.3,0.2-0.5
			c0.1-0.2,0.1-0.4,0.1-0.7v-3.6h0.6V23.5z"/>
		<path id="XMLID_39_" class="st1" d="M88.5,25.7h-0.6v-5.8h1.8c0.6,0,1.1,0.1,1.4,0.4c0.3,0.3,0.5,0.6,0.5,1.2c0,0.4-0.1,0.7-0.4,1
			c-0.3,0.3-0.6,0.4-1.1,0.5l1.7,2.8h-0.7L89.5,23h-1V25.7z M88.5,22.4h1.1c0.3,0,0.5,0,0.7-0.1c0.2-0.1,0.3-0.1,0.4-0.2
			c0.1-0.1,0.2-0.2,0.2-0.3c0-0.1,0.1-0.3,0.1-0.4c0-0.1,0-0.3-0.1-0.4c0-0.1-0.1-0.2-0.2-0.3s-0.3-0.2-0.4-0.2
			c-0.2-0.1-0.4-0.1-0.7-0.1h-1.1V22.4z"/>
		<path id="XMLID_42_" class="st1" d="M96,25.2h3.1v0.5h-3.7v-5.8H99v0.5h-3v2h2.8v0.5H96V25.2z"/>
		<path id="XMLID_44_" class="st1" d="M105.7,20.8c-0.3-0.4-0.6-0.6-1.1-0.6c-0.2,0-0.3,0-0.5,0.1c-0.1,0-0.3,0.1-0.4,0.2
			s-0.2,0.2-0.3,0.3c-0.1,0.1-0.1,0.3-0.1,0.5c0,0.3,0.1,0.5,0.2,0.6c0.1,0.1,0.3,0.3,0.6,0.4c0.2,0.1,0.5,0.2,0.7,0.3
			c0.3,0.1,0.5,0.2,0.7,0.3c0.2,0.1,0.4,0.3,0.6,0.5c0.1,0.2,0.2,0.5,0.2,0.8c0,0.3-0.1,0.5-0.2,0.7c-0.1,0.2-0.3,0.4-0.4,0.5
			c-0.2,0.1-0.4,0.3-0.6,0.3c-0.2,0.1-0.5,0.1-0.7,0.1c-0.4,0-0.7-0.1-1-0.2c-0.3-0.1-0.6-0.4-0.8-0.7l0.5-0.4
			c0.1,0.2,0.3,0.4,0.5,0.5s0.5,0.2,0.8,0.2c0.1,0,0.3,0,0.4-0.1c0.1,0,0.3-0.1,0.4-0.2c0.1-0.1,0.2-0.2,0.3-0.3
			c0.1-0.1,0.1-0.3,0.1-0.5c0-0.2,0-0.4-0.1-0.5c-0.1-0.1-0.2-0.2-0.3-0.3c-0.1-0.1-0.3-0.2-0.5-0.2c-0.2-0.1-0.4-0.1-0.6-0.2
			c-0.2-0.1-0.4-0.1-0.6-0.2c-0.2-0.1-0.3-0.2-0.5-0.3c-0.1-0.1-0.3-0.3-0.3-0.4c-0.1-0.2-0.1-0.4-0.1-0.7c0-0.3,0.1-0.5,0.2-0.7
			c0.1-0.2,0.2-0.4,0.4-0.5c0.2-0.1,0.4-0.2,0.6-0.3c0.2-0.1,0.5-0.1,0.7-0.1c0.3,0,0.6,0.1,0.9,0.2c0.3,0.1,0.5,0.3,0.7,0.6
			L105.7,20.8z"/>
	</g>
	<path id="XMLID_17_" class="st1" d="M15.7,22.5c3.9,0,7-3.1,7-7s-3.1-7-7-7s-7,3.1-7,7S11.8,22.5,15.7,22.5"/>
</g>
</svg>
